<?xml version="1.0" encoding="UTF-8" standalone="no"?>
<!DOCTYPE svg PUBLIC "-//W3C//DTD SVG 1.1//EN"
 "http://www.w3.org/Graphics/SVG/1.1/DTD/svg11.dtd">
<!-- Generated by graphviz version 2.40.1 (20161225.0304)
 -->
<!-- Title: %3 Pages: 1 -->
<svg width="1426pt" height="476pt"
 viewBox="0.00 0.00 1426.48 476.00" xmlns="http://www.w3.org/2000/svg" xmlns:xlink="http://www.w3.org/1999/xlink">
<g id="graph0" class="graph" transform="scale(1 1) rotate(0) translate(4 472)">
<title>%3</title>
<polygon fill="#ffffff" stroke="transparent" points="-4,4 -4,-472 1422.4794,-472 1422.4794,4 -4,4"/>
<!-- 1 -->
<g id="node1" class="node">
<title>1</title>
<ellipse fill="none" stroke="#000000" cx="609.5833" cy="-450" rx="33.2948" ry="18"/>
<text text-anchor="middle" x="609.5833" y="-446.3" font-family="Times,serif" font-size="14.00" fill="#000000">jingoh</text>
</g>
<!-- 23 -->
<g id="node2" class="node">
<title>23</title>
<ellipse fill="none" stroke="#000000" cx="609.5833" cy="-378" rx="57.6901" ry="18"/>
<text text-anchor="middle" x="609.5833" y="-374.3" font-family="Times,serif" font-size="14.00" fill="#000000">jingoh.reader</text>
</g>
<!-- 1&#45;&gt;23 -->
<g id="edge2" class="edge">
<title>1&#45;&gt;23</title>
<path fill="none" stroke="#000000" d="M609.5833,-431.8314C609.5833,-424.131 609.5833,-414.9743 609.5833,-406.4166"/>
<polygon fill="#000000" stroke="#000000" points="613.0834,-406.4132 609.5833,-396.4133 606.0834,-406.4133 613.0834,-406.4132"/>
</g>
<!-- 24 -->
<g id="node3" class="node">
<title>24</title>
<ellipse fill="none" stroke="#000000" cx="523.5833" cy="-306" rx="73.387" ry="18"/>
<text text-anchor="middle" x="523.5833" y="-302.3" font-family="Times,serif" font-size="14.00" fill="#000000">named&#45;readtables</text>
</g>
<!-- 1&#45;&gt;24 -->
<g id="edge1" class="edge">
<title>1&#45;&gt;24</title>
<path fill="none" stroke="#000000" d="M586.223,-436.9443C571.4525,-427.4768 553.2073,-413.319 542.5833,-396 531.1522,-377.3655 526.5134,-352.9248 524.6714,-334.2161"/>
<polygon fill="#000000" stroke="#000000" points="528.1589,-333.9173 523.895,-324.2183 521.1799,-334.4593 528.1589,-333.9173"/>
</g>
<!-- 22 -->
<g id="node4" class="node">
<title>22</title>
<ellipse fill="none" stroke="#000000" cx="754.5833" cy="-378" rx="68.7879" ry="18"/>
<text text-anchor="middle" x="754.5833" y="-374.3" font-family="Times,serif" font-size="14.00" fill="#000000">jingoh.examiner</text>
</g>
<!-- 1&#45;&gt;22 -->
<g id="edge3" class="edge">
<title>1&#45;&gt;22</title>
<path fill="none" stroke="#000000" d="M634.1805,-437.7862C655.841,-427.0306 687.8271,-411.1479 713.3878,-398.4557"/>
<polygon fill="#000000" stroke="#000000" points="715.0832,-401.5216 722.4832,-393.9393 711.97,-395.252 715.0832,-401.5216"/>
</g>
<!-- 10 -->
<g id="node5" class="node">
<title>10</title>
<ellipse fill="none" stroke="#000000" cx="847.5833" cy="-306" rx="54.6905" ry="18"/>
<text text-anchor="middle" x="847.5833" y="-302.3" font-family="Times,serif" font-size="14.00" fill="#000000">jingoh.tester</text>
</g>
<!-- 1&#45;&gt;10 -->
<g id="edge4" class="edge">
<title>1&#45;&gt;10</title>
<path fill="none" stroke="#000000" d="M642.1441,-446.5038C697.6159,-439.8613 806.9466,-423.5642 832.5833,-396 847.7843,-379.6561 850.7959,-354.0379 850.4313,-334.3064"/>
<polygon fill="#000000" stroke="#000000" points="853.9143,-333.8665 849.9374,-324.0463 846.9224,-334.2031 853.9143,-333.8665"/>
</g>
<!-- 2 -->
<g id="node17" class="node">
<title>2</title>
<ellipse fill="none" stroke="#000000" cx="765.5833" cy="-234" rx="47.3916" ry="18"/>
<text text-anchor="middle" x="765.5833" y="-230.3" font-family="Times,serif" font-size="14.00" fill="#000000">jingoh.org</text>
</g>
<!-- 1&#45;&gt;2 -->
<g id="edge5" class="edge">
<title>1&#45;&gt;2</title>
<path fill="none" stroke="#000000" d="M582.3623,-439.3852C522.5309,-414.5695 388.9417,-350.1413 441.5833,-288 450.2345,-277.7876 620.4915,-253.5064 710.6403,-241.2878"/>
<polygon fill="#000000" stroke="#000000" points="711.2507,-244.7372 720.6923,-239.9303 710.3139,-237.8002 711.2507,-244.7372"/>
</g>
<!-- 23&#45;&gt;24 -->
<g id="edge6" class="edge">
<title>23&#45;&gt;24</title>
<path fill="none" stroke="#000000" d="M589.2025,-360.937C578.1197,-351.6584 564.2345,-340.0336 552.0941,-329.8696"/>
<polygon fill="#000000" stroke="#000000" points="554.3296,-327.1764 544.4152,-323.4407 549.836,-332.5437 554.3296,-327.1764"/>
</g>
<!-- 23&#45;&gt;10 -->
<g id="edge7" class="edge">
<title>23&#45;&gt;10</title>
<path fill="none" stroke="#000000" d="M651.312,-365.3762C692.0031,-353.0663 753.9307,-334.3319 797.3139,-321.2075"/>
<polygon fill="#000000" stroke="#000000" points="798.5374,-324.4941 807.0955,-318.2484 796.5105,-317.794 798.5374,-324.4941"/>
</g>
<!-- 22&#45;&gt;10 -->
<g id="edge10" class="edge">
<title>22&#45;&gt;10</title>
<path fill="none" stroke="#000000" d="M776.623,-360.937C788.9888,-351.3634 804.581,-339.292 817.998,-328.9047"/>
<polygon fill="#000000" stroke="#000000" points="820.2579,-331.5814 826.0226,-322.6921 815.9727,-326.0464 820.2579,-331.5814"/>
</g>
<!-- 11 -->
<g id="node13" class="node">
<title>11</title>
<ellipse fill="none" stroke="#000000" cx="1358.5833" cy="-234" rx="50.0912" ry="18"/>
<text text-anchor="middle" x="1358.5833" y="-230.3" font-family="Times,serif" font-size="14.00" fill="#000000">cl&#45;ansi&#45;text</text>
</g>
<!-- 22&#45;&gt;11 -->
<g id="edge9" class="edge">
<title>22&#45;&gt;11</title>
<path fill="none" stroke="#000000" d="M808.5279,-366.7014C906.5685,-345.9018 1120.3227,-299.3315 1298.5833,-252 1302.6038,-250.9325 1306.7623,-249.7821 1310.9279,-248.5975"/>
<polygon fill="#000000" stroke="#000000" points="1311.9685,-251.94 1320.5986,-245.7941 1310.0195,-245.2168 1311.9685,-251.94"/>
</g>
<!-- 22&#45;&gt;2 -->
<g id="edge11" class="edge">
<title>22&#45;&gt;2</title>
<path fill="none" stroke="#000000" d="M755.9764,-359.7623C757.8526,-335.201 761.2102,-291.2474 763.4173,-262.3541"/>
<polygon fill="#000000" stroke="#000000" points="766.9295,-262.3272 764.2014,-252.0896 759.9498,-261.794 766.9295,-262.3272"/>
</g>
<!-- 3 -->
<g id="node23" class="node">
<title>3</title>
<ellipse fill="none" stroke="#000000" cx="262.5833" cy="-90" rx="57.3905" ry="18"/>
<text text-anchor="middle" x="262.5833" y="-86.3" font-family="Times,serif" font-size="14.00" fill="#000000">resignal&#45;bind</text>
</g>
<!-- 22&#45;&gt;3 -->
<g id="edge8" class="edge">
<title>22&#45;&gt;3</title>
<path fill="none" stroke="#000000" d="M733.4941,-360.6527C705.9985,-339.1766 655.503,-303.5378 605.5833,-288 542.0261,-268.2174 53.2155,-300.462 7.5833,-252 -15.2265,-227.7758 20.5557,-154.0559 31.5833,-144 55.8203,-121.8985 139.3263,-106.3948 198.9629,-97.8349"/>
<polygon fill="#000000" stroke="#000000" points="199.6403,-101.2742 209.0572,-96.419 198.668,-94.342 199.6403,-101.2742"/>
</g>
<!-- 21 -->
<g id="node6" class="node">
<title>21</title>
<ellipse fill="none" stroke="#000000" cx="1218.5833" cy="-234" rx="71.4873" ry="18"/>
<text text-anchor="middle" x="1218.5833" y="-230.3" font-family="Times,serif" font-size="14.00" fill="#000000">bordeaux&#45;threads</text>
</g>
<!-- 10&#45;&gt;21 -->
<g id="edge14" class="edge">
<title>10&#45;&gt;21</title>
<path fill="none" stroke="#000000" d="M895.4664,-297.2928C952.3196,-286.8772 1049.9738,-268.7438 1133.5833,-252 1140.2413,-250.6666 1147.1861,-249.2456 1154.1108,-247.809"/>
<polygon fill="#000000" stroke="#000000" points="1155.1327,-251.1712 1164.2064,-245.7015 1153.7021,-244.319 1155.1327,-251.1712"/>
</g>
<!-- 16 -->
<g id="node7" class="node">
<title>16</title>
<ellipse fill="none" stroke="#000000" cx="548.5833" cy="-234" rx="55.4913" ry="18"/>
<text text-anchor="middle" x="548.5833" y="-230.3" font-family="Times,serif" font-size="14.00" fill="#000000">structure&#45;ext</text>
</g>
<!-- 10&#45;&gt;16 -->
<g id="edge16" class="edge">
<title>10&#45;&gt;16</title>
<path fill="none" stroke="#000000" d="M803.4648,-295.3762C750.2891,-282.5713 660.9223,-261.0515 603.3781,-247.1947"/>
<polygon fill="#000000" stroke="#000000" points="603.9134,-243.7237 593.3718,-244.7852 602.2745,-250.5291 603.9134,-243.7237"/>
</g>
<!-- 15 -->
<g id="node12" class="node">
<title>15</title>
<ellipse fill="none" stroke="#000000" cx="56.5833" cy="-234" rx="39.7935" ry="18"/>
<text text-anchor="middle" x="56.5833" y="-230.3" font-family="Times,serif" font-size="14.00" fill="#000000">cl&#45;ppcre</text>
</g>
<!-- 10&#45;&gt;15 -->
<g id="edge17" class="edge">
<title>10&#45;&gt;15</title>
<path fill="none" stroke="#000000" d="M794.7784,-301.1901C752.5356,-297.4055 691.7791,-292.1039 638.5833,-288 404.0686,-269.9079 341.3409,-297.5562 110.5833,-252 106.0993,-251.1148 101.473,-249.9619 96.9022,-248.667"/>
<polygon fill="#000000" stroke="#000000" points="97.6476,-245.2349 87.0611,-245.654 95.5983,-251.9282 97.6476,-245.2349"/>
</g>
<!-- 10&#45;&gt;11 -->
<g id="edge18" class="edge">
<title>10&#45;&gt;11</title>
<path fill="none" stroke="#000000" d="M901.5249,-302.5584C986.6205,-296.4547 1156.9182,-281.5012 1298.5833,-252 1302.7755,-251.127 1307.0975,-250.0967 1311.4103,-248.9782"/>
<polygon fill="#000000" stroke="#000000" points="1312.6731,-252.2612 1321.3911,-246.2406 1310.8214,-245.5105 1312.6731,-252.2612"/>
</g>
<!-- 10&#45;&gt;2 -->
<g id="edge22" class="edge">
<title>10&#45;&gt;2</title>
<path fill="none" stroke="#000000" d="M828.1504,-288.937C817.4529,-279.5441 804.017,-267.7467 792.3408,-257.4944"/>
<polygon fill="#000000" stroke="#000000" points="794.4175,-254.6601 784.5937,-250.6921 789.7989,-259.9202 794.4175,-254.6601"/>
</g>
<!-- 7 -->
<g id="node18" class="node">
<title>7</title>
<ellipse fill="none" stroke="#000000" cx="1028.5833" cy="-162" rx="46.2923" ry="18"/>
<text text-anchor="middle" x="1028.5833" y="-158.3" font-family="Times,serif" font-size="14.00" fill="#000000">check&#45;bnf</text>
</g>
<!-- 10&#45;&gt;7 -->
<g id="edge12" class="edge">
<title>10&#45;&gt;7</title>
<path fill="none" stroke="#000000" d="M888.919,-294.0548C913.9384,-285.3361 945.3836,-271.5914 968.5833,-252 989.1741,-234.6116 1005.535,-208.4341 1015.9374,-188.7867"/>
<polygon fill="#000000" stroke="#000000" points="1019.1295,-190.2315 1020.5578,-179.7334 1012.8945,-187.0494 1019.1295,-190.2315"/>
</g>
<!-- 8 -->
<g id="node20" class="node">
<title>8</title>
<ellipse fill="none" stroke="#000000" cx="976.5833" cy="-90" rx="31.6951" ry="18"/>
<text text-anchor="middle" x="976.5833" y="-86.3" font-family="Times,serif" font-size="14.00" fill="#000000">millet</text>
</g>
<!-- 10&#45;&gt;8 -->
<g id="edge21" class="edge">
<title>10&#45;&gt;8</title>
<path fill="none" stroke="#000000" d="M863.5635,-288.7336C872.6403,-278.4781 883.8903,-264.9781 892.5833,-252 922.6218,-207.1541 949.8832,-150.2464 964.7592,-117.1953"/>
<polygon fill="#000000" stroke="#000000" points="968.0973,-118.3028 968.9676,-107.7437 961.7025,-115.4554 968.0973,-118.3028"/>
</g>
<!-- 6 -->
<g id="node21" class="node">
<title>6</title>
<ellipse fill="none" stroke="#000000" cx="802.5833" cy="-90" rx="27" ry="18"/>
<text text-anchor="middle" x="802.5833" y="-86.3" font-family="Times,serif" font-size="14.00" fill="#000000">uiop</text>
</g>
<!-- 10&#45;&gt;6 -->
<g id="edge15" class="edge">
<title>10&#45;&gt;6</title>
<path fill="none" stroke="#000000" d="M843.824,-287.9555C835.9625,-250.2205 817.7399,-162.7518 808.3725,-117.7882"/>
<polygon fill="#000000" stroke="#000000" points="811.7662,-116.9172 806.3002,-107.8413 804.9134,-118.3449 811.7662,-116.9172"/>
</g>
<!-- 5 -->
<g id="node22" class="node">
<title>5</title>
<ellipse fill="none" stroke="#000000" cx="1234.5833" cy="-18" rx="47.3916" ry="18"/>
<text text-anchor="middle" x="1234.5833" y="-14.3" font-family="Times,serif" font-size="14.00" fill="#000000">alexandria</text>
</g>
<!-- 10&#45;&gt;5 -->
<g id="edge19" class="edge">
<title>10&#45;&gt;5</title>
<path fill="none" stroke="#000000" d="M890.6591,-294.7776C921.6002,-285.713 963.6588,-271.2907 997.5833,-252 1085.1415,-202.2111 1104.4617,-182.1946 1172.5833,-108 1190.6687,-88.3022 1207.6324,-63.015 1219.2279,-44.2629"/>
<polygon fill="#000000" stroke="#000000" points="1222.2685,-45.9989 1224.4704,-35.6354 1216.2863,-42.3638 1222.2685,-45.9989"/>
</g>
<!-- 10&#45;&gt;3 -->
<g id="edge13" class="edge">
<title>10&#45;&gt;3</title>
<path fill="none" stroke="#000000" d="M794.4478,-301.6305C623.2647,-287.0214 94.4546,-237.5396 45.5833,-180 -.499,-125.7442 117.1207,-103.6353 196.6456,-95.0585"/>
<polygon fill="#000000" stroke="#000000" points="197.0357,-98.5369 206.6245,-94.0308 196.3185,-91.5737 197.0357,-98.5369"/>
</g>
<!-- 4 -->
<g id="node24" class="node">
<title>4</title>
<ellipse fill="none" stroke="#000000" cx="541.5833" cy="-18" rx="50.8918" ry="18"/>
<text text-anchor="middle" x="541.5833" y="-14.3" font-family="Times,serif" font-size="14.00" fill="#000000">closer&#45;mop</text>
</g>
<!-- 10&#45;&gt;4 -->
<g id="edge20" class="edge">
<title>10&#45;&gt;4</title>
<path fill="none" stroke="#000000" d="M853.5813,-288.0438C866.769,-244.8356 892.9871,-134.0595 838.5833,-72 808.2893,-37.4431 680.1167,-24.8907 602.3886,-20.4118"/>
<polygon fill="#000000" stroke="#000000" points="602.414,-16.9081 592.2376,-19.8561 602.0313,-23.8976 602.414,-16.9081"/>
</g>
<!-- 21&#45;&gt;5 -->
<g id="edge23" class="edge">
<title>21&#45;&gt;5</title>
<path fill="none" stroke="#000000" d="M1219.9199,-215.9555C1222.7081,-178.3144 1229.162,-91.1867 1232.5,-46.1246"/>
<polygon fill="#000000" stroke="#000000" points="1235.9908,-46.3763 1233.2392,-36.1451 1229.0099,-45.8592 1235.9908,-46.3763"/>
</g>
<!-- 19 -->
<g id="node8" class="node">
<title>19</title>
<ellipse fill="none" stroke="#000000" cx="453.5833" cy="-162" rx="85.2851" ry="18"/>
<text text-anchor="middle" x="453.5833" y="-158.3" font-family="Times,serif" font-size="14.00" fill="#000000">structure&#45;ext.as&#45;class</text>
</g>
<!-- 16&#45;&gt;19 -->
<g id="edge24" class="edge">
<title>16&#45;&gt;19</title>
<path fill="none" stroke="#000000" d="M526.5496,-217.3008C514.1123,-207.8746 498.3679,-195.942 484.6903,-185.5759"/>
<polygon fill="#000000" stroke="#000000" points="486.5731,-182.6112 476.4893,-179.3603 482.3449,-188.19 486.5731,-182.6112"/>
</g>
<!-- 18 -->
<g id="node10" class="node">
<title>18</title>
<ellipse fill="none" stroke="#000000" cx="665.5833" cy="-162" rx="108.5808" ry="18"/>
<text text-anchor="middle" x="665.5833" y="-158.3" font-family="Times,serif" font-size="14.00" fill="#000000">structure&#45;ext.make&#45;instance</text>
</g>
<!-- 16&#45;&gt;18 -->
<g id="edge25" class="edge">
<title>16&#45;&gt;18</title>
<path fill="none" stroke="#000000" d="M574.5493,-218.0209C590.3723,-208.2837 610.8512,-195.6813 628.3773,-184.896"/>
<polygon fill="#000000" stroke="#000000" points="630.5506,-187.6682 637.2328,-179.4464 626.8819,-181.7066 630.5506,-187.6682"/>
</g>
<!-- 17 -->
<g id="node11" class="node">
<title>17</title>
<ellipse fill="none" stroke="#000000" cx="183.5833" cy="-162" rx="128.8774" ry="18"/>
<text text-anchor="middle" x="183.5833" y="-158.3" font-family="Times,serif" font-size="14.00" fill="#000000">structure&#45;ext.left&#45;arrow&#45;accessors</text>
</g>
<!-- 16&#45;&gt;17 -->
<g id="edge26" class="edge">
<title>16&#45;&gt;17</title>
<path fill="none" stroke="#000000" d="M501.2401,-224.6611C442.2878,-213.0321 340.5287,-192.9591 268.0734,-178.6665"/>
<polygon fill="#000000" stroke="#000000" points="268.5399,-175.1912 258.0516,-176.6896 267.1852,-182.0589 268.5399,-175.1912"/>
</g>
<!-- 20 -->
<g id="node9" class="node">
<title>20</title>
<ellipse fill="none" stroke="#000000" cx="541.5833" cy="-90" rx="60.3893" ry="18"/>
<text text-anchor="middle" x="541.5833" y="-86.3" font-family="Times,serif" font-size="14.00" fill="#000000">lambda&#45;fiddle</text>
</g>
<!-- 19&#45;&gt;20 -->
<g id="edge29" class="edge">
<title>19&#45;&gt;20</title>
<path fill="none" stroke="#000000" d="M474.8856,-144.5708C486.3187,-135.2164 500.5674,-123.5584 512.9563,-113.422"/>
<polygon fill="#000000" stroke="#000000" points="515.2575,-116.0615 520.7807,-107.0202 510.8248,-110.6438 515.2575,-116.0615"/>
</g>
<!-- 19&#45;&gt;6 -->
<g id="edge27" class="edge">
<title>19&#45;&gt;6</title>
<path fill="none" stroke="#000000" d="M514.7738,-149.3762C587.6192,-134.3479 706.8779,-109.7444 766.4076,-97.4632"/>
<polygon fill="#000000" stroke="#000000" points="767.3748,-100.8374 776.4614,-95.389 765.9604,-93.9818 767.3748,-100.8374"/>
</g>
<!-- 19&#45;&gt;3 -->
<g id="edge30" class="edge">
<title>19&#45;&gt;3</title>
<path fill="none" stroke="#000000" d="M411.6675,-146.1993C381.2151,-134.7199 340.0152,-119.189 308.6435,-107.363"/>
<polygon fill="#000000" stroke="#000000" points="309.8376,-104.0728 299.2457,-103.8204 307.3684,-110.6228 309.8376,-104.0728"/>
</g>
<!-- 19&#45;&gt;4 -->
<g id="edge28" class="edge">
<title>19&#45;&gt;4</title>
<path fill="none" stroke="#000000" d="M453.8323,-143.7429C454.876,-124.5367 458.8137,-94.09 472.5833,-72 480.7557,-58.8893 493.3038,-47.6821 505.4693,-38.9317"/>
<polygon fill="#000000" stroke="#000000" points="507.4799,-41.797 513.7721,-33.2729 503.5376,-36.0127 507.4799,-41.797"/>
</g>
<!-- 18&#45;&gt;4 -->
<g id="edge31" class="edge">
<title>18&#45;&gt;4</title>
<path fill="none" stroke="#000000" d="M656.9414,-143.8216C647.3049,-124.6811 630.4356,-94.2887 610.5833,-72 599.9789,-60.0943 586.4916,-48.8856 574.2596,-39.799"/>
<polygon fill="#000000" stroke="#000000" points="576.1988,-36.8822 566.0427,-33.8648 572.1004,-42.557 576.1988,-36.8822"/>
</g>
<!-- 17&#45;&gt;3 -->
<g id="edge32" class="edge">
<title>17&#45;&gt;3</title>
<path fill="none" stroke="#000000" d="M203.1114,-144.2022C213.1121,-135.0876 225.4308,-123.8605 236.258,-113.9926"/>
<polygon fill="#000000" stroke="#000000" points="238.7905,-116.4201 243.8238,-107.0972 234.0752,-111.2465 238.7905,-116.4201"/>
</g>
<!-- 12 -->
<g id="node14" class="node">
<title>12</title>
<ellipse fill="none" stroke="#000000" cx="1358.5833" cy="-162" rx="41.6928" ry="18"/>
<text text-anchor="middle" x="1358.5833" y="-158.3" font-family="Times,serif" font-size="14.00" fill="#000000">cl&#45;colors</text>
</g>
<!-- 11&#45;&gt;12 -->
<g id="edge34" class="edge">
<title>11&#45;&gt;12</title>
<path fill="none" stroke="#000000" d="M1358.5833,-215.8314C1358.5833,-208.131 1358.5833,-198.9743 1358.5833,-190.4166"/>
<polygon fill="#000000" stroke="#000000" points="1362.0834,-190.4132 1358.5833,-180.4133 1355.0834,-190.4133 1362.0834,-190.4132"/>
</g>
<!-- 11&#45;&gt;5 -->
<g id="edge33" class="edge">
<title>11&#45;&gt;5</title>
<path fill="none" stroke="#000000" d="M1339.9717,-217.2859C1329.5179,-207.2145 1316.7679,-193.7145 1307.5833,-180 1278.3375,-136.3301 1255.6858,-79.0331 1243.8048,-45.59"/>
<polygon fill="#000000" stroke="#000000" points="1247.0649,-44.3089 1240.468,-36.0184 1240.455,-46.6132 1247.0649,-44.3089"/>
</g>
<!-- 13 -->
<g id="node15" class="node">
<title>13</title>
<ellipse fill="none" stroke="#000000" cx="1375.5833" cy="-90" rx="37.0935" ry="18"/>
<text text-anchor="middle" x="1375.5833" y="-86.3" font-family="Times,serif" font-size="14.00" fill="#000000">let&#45;plus</text>
</g>
<!-- 12&#45;&gt;13 -->
<g id="edge35" class="edge">
<title>12&#45;&gt;13</title>
<path fill="none" stroke="#000000" d="M1362.8731,-143.8314C1364.7395,-135.9266 1366.9682,-126.4872 1369.0344,-117.7365"/>
<polygon fill="#000000" stroke="#000000" points="1372.462,-118.4501 1371.3537,-107.9134 1365.6494,-116.8415 1372.462,-118.4501"/>
</g>
<!-- 12&#45;&gt;5 -->
<g id="edge36" class="edge">
<title>12&#45;&gt;5</title>
<path fill="none" stroke="#000000" d="M1345.5019,-144.6999C1331.4099,-126.2929 1308.1053,-96.5071 1286.5833,-72 1277.8609,-62.0679 1267.8749,-51.5172 1259.0008,-42.4021"/>
<polygon fill="#000000" stroke="#000000" points="1261.3632,-39.8124 1251.8601,-35.128 1256.3678,-44.7161 1261.3632,-39.8124"/>
</g>
<!-- 14 -->
<g id="node16" class="node">
<title>14</title>
<ellipse fill="none" stroke="#000000" cx="1375.5833" cy="-18" rx="42.7926" ry="18"/>
<text text-anchor="middle" x="1375.5833" y="-14.3" font-family="Times,serif" font-size="14.00" fill="#000000">anaphora</text>
</g>
<!-- 13&#45;&gt;14 -->
<g id="edge37" class="edge">
<title>13&#45;&gt;14</title>
<path fill="none" stroke="#000000" d="M1375.5833,-71.8314C1375.5833,-64.131 1375.5833,-54.9743 1375.5833,-46.4166"/>
<polygon fill="#000000" stroke="#000000" points="1379.0834,-46.4132 1375.5833,-36.4133 1372.0834,-46.4133 1379.0834,-46.4132"/>
</g>
<!-- 13&#45;&gt;5 -->
<g id="edge38" class="edge">
<title>13&#45;&gt;5</title>
<path fill="none" stroke="#000000" d="M1349.7217,-76.7941C1328.0087,-65.7066 1296.6991,-49.7187 1272.209,-37.2131"/>
<polygon fill="#000000" stroke="#000000" points="1273.6888,-34.0389 1263.191,-32.6082 1270.5053,-40.2732 1273.6888,-34.0389"/>
</g>
<!-- 2&#45;&gt;7 -->
<g id="edge39" class="edge">
<title>2&#45;&gt;7</title>
<path fill="none" stroke="#000000" d="M804.1074,-223.4535C851.0571,-210.6003 930.3804,-188.8844 981.0711,-175.0071"/>
<polygon fill="#000000" stroke="#000000" points="982.0885,-178.3575 990.8094,-172.3411 980.2401,-171.6059 982.0885,-178.3575"/>
</g>
<!-- 2&#45;&gt;6 -->
<g id="edge40" class="edge">
<title>2&#45;&gt;6</title>
<path fill="none" stroke="#000000" d="M772.0995,-216.1559C775.7715,-205.7079 780.2715,-192.2079 783.5833,-180 789.1493,-159.4823 794.0644,-135.966 797.5004,-118.1181"/>
<polygon fill="#000000" stroke="#000000" points="800.9809,-118.5485 799.3937,-108.0732 794.102,-117.2519 800.9809,-118.5485"/>
</g>
<!-- 2&#45;&gt;5 -->
<g id="edge41" class="edge">
<title>2&#45;&gt;5</title>
<path fill="none" stroke="#000000" d="M778.2591,-216.3992C803.7997,-182.383 865.0677,-107.8187 935.5833,-72 977.2441,-50.8382 1104.446,-33.1038 1178.8369,-24.1882"/>
<polygon fill="#000000" stroke="#000000" points="1179.4495,-27.6402 1188.9689,-22.9892 1178.6268,-20.6887 1179.4495,-27.6402"/>
</g>
<!-- 2&#45;&gt;3 -->
<g id="edge42" class="edge">
<title>2&#45;&gt;3</title>
<path fill="none" stroke="#000000" d="M720.0312,-228.704C617.3983,-216.6679 375.7267,-187.7048 359.5833,-180 338.5876,-169.9793 338.6091,-159.8542 321.5833,-144 310.975,-134.1218 299.2078,-123.3206 288.9907,-113.9917"/>
<polygon fill="#000000" stroke="#000000" points="291.2724,-111.3357 281.5246,-107.1845 286.5561,-116.5084 291.2724,-111.3357"/>
</g>
<!-- 9 -->
<g id="node19" class="node">
<title>9</title>
<ellipse fill="none" stroke="#000000" cx="1078.5833" cy="-90" rx="51.9908" ry="18"/>
<text text-anchor="middle" x="1078.5833" y="-86.3" font-family="Times,serif" font-size="14.00" fill="#000000">matrix&#45;case</text>
</g>
<!-- 7&#45;&gt;9 -->
<g id="edge43" class="edge">
<title>7&#45;&gt;9</title>
<path fill="none" stroke="#000000" d="M1040.6869,-144.5708C1046.6614,-135.9675 1053.9891,-125.4156 1060.6033,-115.8911"/>
<polygon fill="#000000" stroke="#000000" points="1063.5886,-117.7284 1066.4178,-107.5182 1057.839,-113.7356 1063.5886,-117.7284"/>
</g>
<!-- 7&#45;&gt;8 -->
<g id="edge45" class="edge">
<title>7&#45;&gt;8</title>
<path fill="none" stroke="#000000" d="M1015.9955,-144.5708C1009.5791,-135.6866 1001.662,-124.7245 994.611,-114.9615"/>
<polygon fill="#000000" stroke="#000000" points="997.3894,-112.8305 988.697,-106.7729 991.7146,-116.929 997.3894,-112.8305"/>
</g>
<!-- 7&#45;&gt;5 -->
<g id="edge44" class="edge">
<title>7&#45;&gt;5</title>
<path fill="none" stroke="#000000" d="M1061.5998,-149.0974C1084.4725,-139.4193 1115.0923,-124.9565 1139.5833,-108 1154.4353,-97.7171 1187.4934,-65.4809 1210.4079,-42.5335"/>
<polygon fill="#000000" stroke="#000000" points="1213.1786,-44.7109 1217.749,-35.1526 1208.2155,-39.7745 1213.1786,-44.7109"/>
</g>
<!-- 3&#45;&gt;4 -->
<g id="edge46" class="edge">
<title>3&#45;&gt;4</title>
<path fill="none" stroke="#000000" d="M307.1001,-78.5118C357.108,-65.6065 438.1286,-44.698 490.6283,-31.1497"/>
<polygon fill="#000000" stroke="#000000" points="491.5995,-34.5138 500.4076,-28.626 489.8503,-27.7358 491.5995,-34.5138"/>
</g>
</g>
</svg>
